<svg xmlns="http://www.w3.org/2000/svg" width="22.703" height="22.703" viewBox="0 0 22.703 22.703"><defs><style>.a{fill:#1e1f39;}</style></defs><g transform="translate(-0.003 0)"><g transform="translate(0.003 0)"><g transform="translate(0 0)"><path class="a" d="M22.616,20.559l-1.559-4.536A11.092,11.092,0,1,0,11.1,22.2h.017a11.136,11.136,0,0,0,4.9-1.149l4.536,1.559a1.629,1.629,0,0,0,.53.089,1.619,1.619,0,0,0,1.524-2.144Zm-1.338.717a.26.26,0,0,1-.28.065l-4.806-1.652a.673.673,0,0,0-.533.042,9.752,9.752,0,1,1,4.074-4.074.673.673,0,0,0-.042.533L21.343,21A.26.26,0,0,1,21.279,21.276Z" transform="translate(-0.003 0)"/></g></g><g transform="translate(10.322 16.085)"><path class="a" d="M233.393,362.748a.673.673,0,1,0,.673.673A.681.681,0,0,0,233.393,362.748Z" transform="translate(-232.719 -362.748)"/></g><g transform="translate(7.647 5.661)"><path class="a" d="M175.743,127.674a3.352,3.352,0,0,0-3.348,3.349.673.673,0,0,0,1.346,0,2,2,0,1,1,2,2,.673.673,0,0,0-.673.673v2.745a.673.673,0,1,0,1.346,0V134.3a3.349,3.349,0,0,0-.673-6.629Z" transform="translate(-172.395 -127.674)"/></g></g></svg>